<?xml version="1.0" encoding="UTF-8" standalone="no"?><!DOCTYPE svg PUBLIC "-//W3C//DTD SVG 1.1//EN" "http://www.w3.org/Graphics/SVG/1.1/DTD/svg11.dtd"><svg width="100%" height="100%" viewBox="0 0 37 37" version="1.1" xmlns="http://www.w3.org/2000/svg" xmlns:xlink="http://www.w3.org/1999/xlink" xml:space="preserve" xmlns:serif="http://www.serif.com/" style="fill-rule:evenodd;clip-rule:evenodd;stroke-linejoin:round;stroke-miterlimit:2;"><g><path d="M13.376,10.487c-0.275,-0.453 -0.72,-0.778 -1.235,-0.904c-0.515,-0.125 -1.059,-0.04 -1.512,0.235c-2.305,1.403 -6.39,3.888 -8.695,5.291c-0.453,0.276 -0.778,0.72 -0.903,1.235c-0.126,0.516 -0.041,1.059 0.234,1.512c2.02,3.319 6.452,10.604 8.472,13.922c0.275,0.453 0.72,0.778 1.235,0.903c0.515,0.126 1.059,0.041 1.512,-0.234c2.305,-1.403 6.39,-3.888 8.695,-5.291c0.453,-0.276 0.778,-0.72 0.903,-1.235c0.126,-0.516 0.041,-1.059 -0.234,-1.512c-2.02,-3.319 -6.452,-10.604 -8.472,-13.922Z" style="fill:#ff7250;"/><path d="M24.009,4.106c-0.014,-0.53 -0.239,-1.033 -0.624,-1.397c-0.385,-0.364 -0.899,-0.561 -1.43,-0.546c-2.697,0.075 -7.476,0.208 -10.174,0.283c-0.53,0.014 -1.033,0.239 -1.397,0.624c-0.364,0.385 -0.561,0.9 -0.546,1.43c0.108,3.883 0.345,12.407 0.453,16.29c0.014,0.53 0.239,1.033 0.624,1.397c0.385,0.364 0.9,0.561 1.43,0.546c2.697,-0.075 7.477,-0.208 10.174,-0.283c0.53,-0.015 1.033,-0.239 1.397,-0.624c0.365,-0.386 0.561,-0.9 0.546,-1.43c-0.108,-3.883 -0.345,-12.407 -0.453,-16.29Z" style="fill:#31b27f;"/><path d="M35.935,14.892c0.25,-0.467 0.304,-1.015 0.15,-1.523c-0.154,-0.507 -0.503,-0.933 -0.97,-1.183c-2.38,-1.272 -6.596,-3.527 -8.976,-4.8c-0.468,-0.25 -1.015,-0.304 -1.523,-0.15c-0.507,0.154 -0.933,0.503 -1.183,0.971c-1.832,3.425 -5.853,10.945 -7.685,14.37c-0.25,0.468 -0.304,1.016 -0.15,1.523c0.154,0.508 0.503,0.933 0.97,1.183c2.38,1.273 6.596,3.527 8.976,4.8c0.468,0.25 1.015,0.304 1.523,0.15c0.507,-0.153 0.933,-0.502 1.183,-0.97c1.832,-3.426 5.853,-10.945 7.685,-14.371Z" style="fill:#5085ff;"/></g></svg>