<svg version="1" xmlns="http://www.w3.org/2000/svg" width="933.333" height="933.333" viewBox="0 0 700.000000 700.000000"><path d="M384.7 41.7c-.1 0-11 .4-24.2.8-13.2.3-30.3.8-38 1-7.7.3-23.2.7-34.5 1-34.4.8-61.3 1.6-66.2 1.9-15.7 1.1-29 11.4-33.7 26.1-2.1 6.3-2.1 12.9-.6 61 .2 8.8.7 25.8 1 37.7l.6 21.7-5.6 3.5c-3 2-5.7 3.6-6 3.6-.2 0-5.3 3.1-11.2 6.8-5.9 3.7-11.5 7.1-12.3 7.5-.8.4-5.7 3.3-10.7 6.5-5.1 3.1-16.4 10-25 15.3-8.7 5.3-24.1 14.7-34.3 20.9-10.2 6.2-19.8 12-21.5 13-12.9 7.4-30.2 18.8-33.1 21.8-10.1 10.4-13.5 26-8.5 39.1 1.5 3.9 31.7 54.8 49.1 82.6 2 3.3 8.3 13.5 13.9 22.7 5.5 9.3 14.7 24.3 20.2 33.5 5.6 9.3 11.2 18.4 12.4 20.3 1.3 1.9 9.4 15.2 18 29.5 51 84.1 52.2 86.1 57 90.2 10.8 9.3 25.9 12.1 38.3 7 4.8-2 40.1-22.8 51.3-30.3 1.9-1.3 4-2.4 4.6-2.4.6 0 1.3-.3 1.5-.8.2-.4 7.1-4.8 15.3-9.8 8.3-5 25.6-15.5 38.5-23.4 12.9-7.9 29.4-17.9 36.7-22.3l13.2-7.9 13.8 7.2c7.6 4 15.2 8 16.8 9 1.7.9 6.8 3.8 11.5 6.2 4.7 2.5 18.2 9.8 30.1 16.2 11.9 6.4 23.6 12.3 26 13.2 9.1 3.2 20.6 2.2 30.4-2.8 3.7-2 14.5-12 14.5-13.7 0-.4 4-8.1 8.8-17.2 4.9-9 11.2-20.9 14.1-26.4 3-5.5 8.4-15.6 12.1-22.5 3.7-6.9 9.3-17.5 12.5-23.5 3.2-6.1 6.1-11.5 6.5-12 .4-.6 3.3-6 6.5-12 3.2-6.1 7.4-14.2 9.5-18 9.9-18.3 18.2-33.9 23-43 2.9-5.5 6.7-12.7 8.5-16 7.3-13.4 11-20.4 14.8-27.5 2.2-4.1 6.9-12.9 10.5-19.5 17-31.5 22.1-42.1 22.8-47 .3-2.8.8-5.2.9-5.5.8-1.3-2.3-13.9-4.5-18.2-1.3-2.6-4.4-6.9-7-9.4-4.8-4.7-6.4-5.8-25.5-15.8-6-3.2-12.3-6.6-14-7.6-1.6-.9-7.5-4.1-13-7-28.6-15.1-62.3-33.1-87-46.5-3.3-1.8-9.8-5.3-14.5-7.8-4.7-2.4-12.4-6.5-17.1-9.1-10.2-5.4-15.4-7.4-21.7-8.1-5.8-.7-14.3.9-19.6 3.5-2.2 1.1-4.1 1.8-4.3 1.6-.2-.2-.5-8.4-.8-18.2-.9-32.4-1.5-48.9-2.1-51.8-1.9-10.5-12-22.4-22.6-26.6-6-2.4-7.3-2.5-26.1-2.5-10.9 0-19.9.1-20 .2z"/></svg>